<svg width="80" height="103" viewBox="0 0 80 103" fill="none" xmlns="http://www.w3.org/2000/svg">
<path d="M40 11C60.6965 11 78 30.8326 78 56C78 81.1674 60.6965 101 40 101C19.3035 101 2 81.1674 2 56C2 30.8326 19.3035 11 40 11Z" fill="#242121" stroke="#FFC300" stroke-width="4"/>
<path d="M39.224 70.576C35.9387 70.576 32.952 69.8293 30.264 68.336C27.6187 66.8427 25.528 64.7307 23.992 62C22.4987 59.2267 21.752 56.0267 21.752 52.4C21.752 48.816 22.52 45.6587 24.056 42.928C25.6347 40.1547 27.768 38.0427 30.456 36.592C33.144 35.0987 36.152 34.352 39.48 34.352C42.808 34.352 45.816 35.0987 48.504 36.592C51.192 38.0427 53.304 40.1333 54.84 42.864C56.4187 45.5947 57.208 48.7733 57.208 52.4C57.208 56.0267 56.3973 59.2267 54.776 62C53.1973 64.7307 51.0427 66.8427 48.312 68.336C45.5813 69.8293 42.552 70.576 39.224 70.576ZM39.224 65.456C41.3147 65.456 43.2773 64.9653 45.112 63.984C46.9467 63.0027 48.4187 61.5307 49.528 59.568C50.68 57.6053 51.256 55.216 51.256 52.4C51.256 49.584 50.7013 47.1947 49.592 45.232C48.4827 43.2693 47.032 41.8187 45.24 40.88C43.448 39.8987 41.5067 39.408 39.416 39.408C37.2827 39.408 35.32 39.8987 33.528 40.88C31.7787 41.8187 30.3707 43.2693 29.304 45.232C28.2373 47.1947 27.704 49.584 27.704 52.4C27.704 55.2587 28.216 57.6693 29.24 59.632C30.3067 61.5947 31.7147 63.0667 33.464 64.048C35.2133 64.9867 37.1333 65.456 39.224 65.456Z" fill="#FFC300"/>
<line x1="23" y1="81" x2="58" y2="81" stroke="#FFC300" stroke-width="8"/>
<rect x="47" y="39.2471" width="13.7874" height="10.9703" transform="rotate(-36.7388 47 39.2471)" fill="#FFC300"/>
</svg>
